<mxfile host="app.diagrams.net" modified="2024-02-07T11:29:20.712Z" agent="Mozilla/5.0 (Windows NT 10.0; Win64; x64) AppleWebKit/537.36 (KHTML, like Gecko) Chrome/121.0.0.0 Safari/537.36 Edg/121.0.0.0" etag="IZ4RVXiY_GkdJDgHlxtR" version="23.1.1" type="github">
  <diagram name="Page-1" id="eDOrAsLSd2snkXvP3JC_">
    <mxGraphModel dx="786" dy="477" grid="1" gridSize="10" guides="1" tooltips="1" connect="1" arrows="1" fold="1" page="1" pageScale="1" pageWidth="1169" pageHeight="827" math="0" shadow="0">
      <root>
        <mxCell id="0" />
        <mxCell id="1" parent="0" />
        <mxCell id="2j7GwoUURgKt9Ce0QU_s-8" style="edgeStyle=orthogonalEdgeStyle;rounded=0;orthogonalLoop=1;jettySize=auto;html=1;exitX=0.5;exitY=0.5;exitDx=0;exitDy=20;exitPerimeter=0;entryX=0.5;entryY=0;entryDx=0;entryDy=0;" edge="1" parent="1" source="2j7GwoUURgKt9Ce0QU_s-2" target="2j7GwoUURgKt9Ce0QU_s-3">
          <mxGeometry relative="1" as="geometry" />
        </mxCell>
        <mxCell id="2j7GwoUURgKt9Ce0QU_s-2" value="Start" style="html=1;dashed=0;whiteSpace=wrap;shape=mxgraph.dfd.start;fontSize=11;" vertex="1" parent="1">
          <mxGeometry x="80" y="40" width="140" height="40" as="geometry" />
        </mxCell>
        <mxCell id="2j7GwoUURgKt9Ce0QU_s-3" value="Input / Selection Screen" style="shape=manualInput;whiteSpace=wrap;html=1;fontSize=11;size=13;spacingTop=7;" vertex="1" parent="1">
          <mxGeometry x="80" y="100" width="140" height="50" as="geometry" />
        </mxCell>
        <mxCell id="2j7GwoUURgKt9Ce0QU_s-37" style="edgeStyle=orthogonalEdgeStyle;rounded=0;orthogonalLoop=1;jettySize=auto;html=1;exitX=0.5;exitY=1;exitDx=0;exitDy=0;exitPerimeter=0;entryX=0.5;entryY=0;entryDx=0;entryDy=0;" edge="1" parent="1" source="2j7GwoUURgKt9Ce0QU_s-5">
          <mxGeometry relative="1" as="geometry">
            <mxPoint x="150" y="240" as="targetPoint" />
          </mxGeometry>
        </mxCell>
        <mxCell id="2j7GwoUURgKt9Ce0QU_s-5" value="AT SELECTION-SCREEN" style="html=1;outlineConnect=0;whiteSpace=wrap;fillColor=default;shape=mxgraph.archimate3.application;appType=event;archiType=rounded;gradientColor=none;fontSize=11;spacingTop=5;" vertex="1" parent="1">
          <mxGeometry x="80" y="170" width="140" height="50" as="geometry" />
        </mxCell>
        <mxCell id="2j7GwoUURgKt9Ce0QU_s-9" style="edgeStyle=orthogonalEdgeStyle;rounded=0;orthogonalLoop=1;jettySize=auto;html=1;exitX=0.5;exitY=1;exitDx=0;exitDy=0;entryX=0.5;entryY=0;entryDx=0;entryDy=0;entryPerimeter=0;" edge="1" parent="1" source="2j7GwoUURgKt9Ce0QU_s-3" target="2j7GwoUURgKt9Ce0QU_s-5">
          <mxGeometry relative="1" as="geometry" />
        </mxCell>
        <mxCell id="2j7GwoUURgKt9Ce0QU_s-11" value="Output Error Message" style="shape=manualInput;whiteSpace=wrap;html=1;fontSize=11;size=13;spacingTop=7;" vertex="1" parent="1">
          <mxGeometry x="350" y="340" width="140" height="50" as="geometry" />
        </mxCell>
        <mxCell id="2j7GwoUURgKt9Ce0QU_s-13" value="End" style="html=1;dashed=0;whiteSpace=wrap;shape=mxgraph.dfd.start;fontSize=11;" vertex="1" parent="1">
          <mxGeometry x="620" y="345" width="140" height="40" as="geometry" />
        </mxCell>
        <mxCell id="2j7GwoUURgKt9Ce0QU_s-26" style="edgeStyle=orthogonalEdgeStyle;rounded=0;orthogonalLoop=1;jettySize=auto;html=1;exitX=0.5;exitY=1;exitDx=0;exitDy=0;exitPerimeter=0;entryX=0.5;entryY=0;entryDx=0;entryDy=0;" edge="1" parent="1" source="2j7GwoUURgKt9Ce0QU_s-18" target="2j7GwoUURgKt9Ce0QU_s-21">
          <mxGeometry relative="1" as="geometry" />
        </mxCell>
        <mxCell id="2j7GwoUURgKt9Ce0QU_s-18" value="START-OF-SELECTION" style="html=1;outlineConnect=0;whiteSpace=wrap;fillColor=default;shape=mxgraph.archimate3.application;appType=event;archiType=rounded;gradientColor=none;fontSize=11;spacingTop=5;" vertex="1" parent="1">
          <mxGeometry x="260" y="100" width="140" height="50" as="geometry" />
        </mxCell>
        <mxCell id="2j7GwoUURgKt9Ce0QU_s-27" style="edgeStyle=orthogonalEdgeStyle;rounded=0;orthogonalLoop=1;jettySize=auto;html=1;exitX=0.5;exitY=1;exitDx=0;exitDy=0;entryX=0.5;entryY=0;entryDx=0;entryDy=0;" edge="1" parent="1" source="2j7GwoUURgKt9Ce0QU_s-21" target="2j7GwoUURgKt9Ce0QU_s-25">
          <mxGeometry relative="1" as="geometry" />
        </mxCell>
        <mxCell id="2j7GwoUURgKt9Ce0QU_s-21" value="&lt;font style=&quot;font-size: 11px;&quot;&gt;Form CHECK_AUTH1&lt;br&gt;&lt;/font&gt;" style="shape=process;whiteSpace=wrap;html=1;backgroundOutline=1;fontSize=11;size=0.041666666666666664;" vertex="1" parent="1">
          <mxGeometry x="260" y="170" width="140" height="50" as="geometry" />
        </mxCell>
        <mxCell id="2j7GwoUURgKt9Ce0QU_s-30" style="edgeStyle=orthogonalEdgeStyle;rounded=0;orthogonalLoop=1;jettySize=auto;html=1;exitX=0.5;exitY=1;exitDx=0;exitDy=0;entryX=0.5;entryY=0;entryDx=0;entryDy=0;" edge="1" parent="1" source="2j7GwoUURgKt9Ce0QU_s-22" target="2j7GwoUURgKt9Ce0QU_s-23">
          <mxGeometry relative="1" as="geometry" />
        </mxCell>
        <mxCell id="2j7GwoUURgKt9Ce0QU_s-22" value="&lt;font style=&quot;font-size: 11px;&quot;&gt;Form SELECT_PO&lt;br&gt;&lt;/font&gt;" style="shape=process;whiteSpace=wrap;html=1;backgroundOutline=1;fontSize=11;size=0.041666666666666664;" vertex="1" parent="1">
          <mxGeometry x="440" y="100" width="140" height="50" as="geometry" />
        </mxCell>
        <mxCell id="2j7GwoUURgKt9Ce0QU_s-31" style="edgeStyle=orthogonalEdgeStyle;rounded=0;orthogonalLoop=1;jettySize=auto;html=1;exitX=0.5;exitY=1;exitDx=0;exitDy=0;entryX=0.5;entryY=0;entryDx=0;entryDy=0;" edge="1" parent="1" source="2j7GwoUURgKt9Ce0QU_s-23" target="2j7GwoUURgKt9Ce0QU_s-28">
          <mxGeometry relative="1" as="geometry" />
        </mxCell>
        <mxCell id="2j7GwoUURgKt9Ce0QU_s-23" value="&lt;font style=&quot;font-size: 11px;&quot;&gt;Form CHECK_AUTH2&lt;br&gt;&lt;/font&gt;" style="shape=process;whiteSpace=wrap;html=1;backgroundOutline=1;fontSize=11;size=0.041666666666666664;" vertex="1" parent="1">
          <mxGeometry x="440" y="170" width="140" height="50" as="geometry" />
        </mxCell>
        <mxCell id="2j7GwoUURgKt9Ce0QU_s-29" style="edgeStyle=orthogonalEdgeStyle;rounded=0;orthogonalLoop=1;jettySize=auto;html=1;exitX=1;exitY=0.5;exitDx=0;exitDy=0;entryX=0;entryY=0.5;entryDx=0;entryDy=0;" edge="1" parent="1" source="2j7GwoUURgKt9Ce0QU_s-25" target="2j7GwoUURgKt9Ce0QU_s-22">
          <mxGeometry relative="1" as="geometry">
            <Array as="points">
              <mxPoint x="420" y="275" />
              <mxPoint x="420" y="125" />
            </Array>
          </mxGeometry>
        </mxCell>
        <mxCell id="2j7GwoUURgKt9Ce0QU_s-61" value="N" style="edgeLabel;html=1;align=center;verticalAlign=middle;resizable=0;points=[];" vertex="1" connectable="0" parent="2j7GwoUURgKt9Ce0QU_s-29">
          <mxGeometry x="-0.84" relative="1" as="geometry">
            <mxPoint as="offset" />
          </mxGeometry>
        </mxCell>
        <mxCell id="2j7GwoUURgKt9Ce0QU_s-46" style="edgeStyle=orthogonalEdgeStyle;rounded=0;orthogonalLoop=1;jettySize=auto;html=1;exitX=0.5;exitY=1;exitDx=0;exitDy=0;entryX=0;entryY=0.5;entryDx=0;entryDy=0;" edge="1" parent="1" source="2j7GwoUURgKt9Ce0QU_s-25" target="2j7GwoUURgKt9Ce0QU_s-11">
          <mxGeometry relative="1" as="geometry" />
        </mxCell>
        <mxCell id="2j7GwoUURgKt9Ce0QU_s-59" value="Y" style="edgeLabel;html=1;align=center;verticalAlign=middle;resizable=0;points=[];" vertex="1" connectable="0" parent="2j7GwoUURgKt9Ce0QU_s-46">
          <mxGeometry x="-0.2178" relative="1" as="geometry">
            <mxPoint as="offset" />
          </mxGeometry>
        </mxCell>
        <mxCell id="2j7GwoUURgKt9Ce0QU_s-25" value="Return Code = E" style="rhombus;whiteSpace=wrap;html=1;fontSize=11;spacingTop=3;" vertex="1" parent="1">
          <mxGeometry x="270" y="240" width="120" height="70" as="geometry" />
        </mxCell>
        <mxCell id="2j7GwoUURgKt9Ce0QU_s-50" style="edgeStyle=orthogonalEdgeStyle;rounded=0;orthogonalLoop=1;jettySize=auto;html=1;exitX=1;exitY=0.5;exitDx=0;exitDy=0;entryX=0;entryY=0.5;entryDx=0;entryDy=0;" edge="1" parent="1" source="2j7GwoUURgKt9Ce0QU_s-28" target="2j7GwoUURgKt9Ce0QU_s-40">
          <mxGeometry relative="1" as="geometry">
            <Array as="points">
              <mxPoint x="600" y="275" />
              <mxPoint x="600" y="125" />
            </Array>
          </mxGeometry>
        </mxCell>
        <mxCell id="2j7GwoUURgKt9Ce0QU_s-62" value="N" style="edgeLabel;html=1;align=center;verticalAlign=middle;resizable=0;points=[];" vertex="1" connectable="0" parent="2j7GwoUURgKt9Ce0QU_s-50">
          <mxGeometry x="-0.84" relative="1" as="geometry">
            <mxPoint as="offset" />
          </mxGeometry>
        </mxCell>
        <mxCell id="2j7GwoUURgKt9Ce0QU_s-53" style="edgeStyle=orthogonalEdgeStyle;rounded=0;orthogonalLoop=1;jettySize=auto;html=1;exitX=0.5;exitY=1;exitDx=0;exitDy=0;entryX=1;entryY=0.5;entryDx=0;entryDy=0;" edge="1" parent="1" source="2j7GwoUURgKt9Ce0QU_s-28" target="2j7GwoUURgKt9Ce0QU_s-11">
          <mxGeometry relative="1" as="geometry" />
        </mxCell>
        <mxCell id="2j7GwoUURgKt9Ce0QU_s-60" value="Y" style="edgeLabel;html=1;align=center;verticalAlign=middle;resizable=0;points=[];" vertex="1" connectable="0" parent="2j7GwoUURgKt9Ce0QU_s-53">
          <mxGeometry x="-0.2711" relative="1" as="geometry">
            <mxPoint as="offset" />
          </mxGeometry>
        </mxCell>
        <mxCell id="2j7GwoUURgKt9Ce0QU_s-28" value="Return Code = E" style="rhombus;whiteSpace=wrap;html=1;fontSize=11;spacingTop=3;" vertex="1" parent="1">
          <mxGeometry x="450" y="240" width="120" height="70" as="geometry" />
        </mxCell>
        <mxCell id="2j7GwoUURgKt9Ce0QU_s-51" style="edgeStyle=orthogonalEdgeStyle;rounded=0;orthogonalLoop=1;jettySize=auto;html=1;exitX=0.5;exitY=1;exitDx=0;exitDy=0;entryX=0.5;entryY=0;entryDx=0;entryDy=0;" edge="1" parent="1" source="2j7GwoUURgKt9Ce0QU_s-40" target="2j7GwoUURgKt9Ce0QU_s-41">
          <mxGeometry relative="1" as="geometry" />
        </mxCell>
        <mxCell id="2j7GwoUURgKt9Ce0QU_s-40" value="&lt;font style=&quot;font-size: 11px;&quot;&gt;Form GET_PO_DETAIL&lt;br&gt;&lt;/font&gt;" style="shape=process;whiteSpace=wrap;html=1;backgroundOutline=1;fontSize=11;size=0.041666666666666664;" vertex="1" parent="1">
          <mxGeometry x="620" y="100" width="140" height="50" as="geometry" />
        </mxCell>
        <mxCell id="2j7GwoUURgKt9Ce0QU_s-73" style="edgeStyle=orthogonalEdgeStyle;rounded=0;orthogonalLoop=1;jettySize=auto;html=1;exitX=0.5;exitY=1;exitDx=0;exitDy=0;entryX=0.5;entryY=0;entryDx=0;entryDy=0;" edge="1" parent="1" source="2j7GwoUURgKt9Ce0QU_s-41" target="2j7GwoUURgKt9Ce0QU_s-72">
          <mxGeometry relative="1" as="geometry" />
        </mxCell>
        <mxCell id="2j7GwoUURgKt9Ce0QU_s-41" value="&lt;font style=&quot;font-size: 11px;&quot;&gt;Form GET_REFNO_&lt;br&gt;PURGRPLIST&lt;br&gt;&lt;/font&gt;" style="shape=process;whiteSpace=wrap;html=1;backgroundOutline=1;fontSize=11;size=0.041666666666666664;" vertex="1" parent="1">
          <mxGeometry x="620" y="170" width="140" height="50" as="geometry" />
        </mxCell>
        <mxCell id="2j7GwoUURgKt9Ce0QU_s-55" style="edgeStyle=orthogonalEdgeStyle;rounded=0;orthogonalLoop=1;jettySize=auto;html=1;exitX=1;exitY=0.75;exitDx=0;exitDy=0;entryX=0;entryY=0.5;entryDx=0;entryDy=0;entryPerimeter=0;" edge="1" parent="1" source="2j7GwoUURgKt9Ce0QU_s-11" target="2j7GwoUURgKt9Ce0QU_s-13">
          <mxGeometry relative="1" as="geometry" />
        </mxCell>
        <mxCell id="2j7GwoUURgKt9Ce0QU_s-68" style="edgeStyle=orthogonalEdgeStyle;rounded=0;orthogonalLoop=1;jettySize=auto;html=1;exitX=0.5;exitY=1;exitDx=0;exitDy=0;entryX=0;entryY=0.75;entryDx=0;entryDy=0;" edge="1" parent="1" source="2j7GwoUURgKt9Ce0QU_s-67" target="2j7GwoUURgKt9Ce0QU_s-11">
          <mxGeometry relative="1" as="geometry" />
        </mxCell>
        <mxCell id="2j7GwoUURgKt9Ce0QU_s-71" value="Y" style="edgeLabel;html=1;align=center;verticalAlign=middle;resizable=0;points=[];" vertex="1" connectable="0" parent="2j7GwoUURgKt9Ce0QU_s-68">
          <mxGeometry x="-0.8061" relative="1" as="geometry">
            <mxPoint as="offset" />
          </mxGeometry>
        </mxCell>
        <mxCell id="2j7GwoUURgKt9Ce0QU_s-67" value="CHECK&lt;br style=&quot;font-size: 11px;&quot;&gt;P_SAVE &amp;lt;&amp;gt; SPACE&lt;br style=&quot;font-size: 11px;&quot;&gt;&amp;amp; OUTFILE = SPACE" style="rhombus;whiteSpace=wrap;html=1;fontSize=11;spacingTop=-15;" vertex="1" parent="1">
          <mxGeometry x="80" y="240" width="140" height="90" as="geometry" />
        </mxCell>
        <mxCell id="2j7GwoUURgKt9Ce0QU_s-69" style="edgeStyle=orthogonalEdgeStyle;rounded=0;orthogonalLoop=1;jettySize=auto;html=1;exitX=1;exitY=0.5;exitDx=0;exitDy=0;entryX=0;entryY=0.5;entryDx=0;entryDy=0;entryPerimeter=0;" edge="1" parent="1" source="2j7GwoUURgKt9Ce0QU_s-67" target="2j7GwoUURgKt9Ce0QU_s-18">
          <mxGeometry relative="1" as="geometry" />
        </mxCell>
        <mxCell id="2j7GwoUURgKt9Ce0QU_s-70" value="N" style="edgeLabel;html=1;align=center;verticalAlign=middle;resizable=0;points=[];" vertex="1" connectable="0" parent="2j7GwoUURgKt9Ce0QU_s-69">
          <mxGeometry x="-0.9" relative="1" as="geometry">
            <mxPoint as="offset" />
          </mxGeometry>
        </mxCell>
        <mxCell id="2j7GwoUURgKt9Ce0QU_s-72" value="&lt;font style=&quot;font-size: 11px;&quot;&gt;A&lt;/font&gt;" style="ellipse;whiteSpace=wrap;html=1;aspect=fixed;" vertex="1" parent="1">
          <mxGeometry x="675" y="240" width="30" height="30" as="geometry" />
        </mxCell>
      </root>
    </mxGraphModel>
  </diagram>
</mxfile>
